<?xml version="1.0" standalone="no"?><!DOCTYPE svg PUBLIC "-//W3C//DTD SVG 1.1//EN" "http://www.w3.org/Graphics/SVG/1.1/DTD/svg11.dtd"><svg t="1723105401132" class="icon" viewBox="0 0 1024 1024" version="1.1" xmlns="http://www.w3.org/2000/svg" p-id="20597" xmlns:xlink="http://www.w3.org/1999/xlink" width="200" height="200"><path d="M515.6864 507.648m-427.4688 0a427.4688 427.4688 0 1 0 854.9376 0 427.4688 427.4688 0 1 0-854.9376 0Z" fill="#80B7F9" p-id="20598"></path><path d="M515.6864 434.7904c-60.8256 0-110.336-49.5104-110.336-110.336s49.5104-110.336 110.336-110.336 110.336 49.5104 110.336 110.336-49.5104 110.336-110.336 110.336z m0-138.8032c-15.6672 0-28.416 12.7488-28.416 28.416 0 15.6672 12.7488 28.416 28.416 28.416 15.6672 0 28.416-12.7488 28.416-28.416 0-15.6672-12.7488-28.416-28.416-28.416zM515.6864 807.9872c-60.8256 0-110.336-49.5104-110.336-110.336s49.5104-110.336 110.336-110.336 110.336 49.5104 110.336 110.336-49.5104 110.336-110.336 110.336z m0-138.8032c-15.6672 0-28.416 12.7488-28.416 28.416 0 15.6672 12.7488 28.416 28.416 28.416 15.6672 0 28.416-12.7488 28.416-28.416 0-15.6672-12.7488-28.416-28.416-28.416zM323.9424 621.3632c-60.8256 0-110.336-49.5104-110.336-110.336s49.5104-110.336 110.336-110.336 110.336 49.5104 110.336 110.336-49.5104 110.336-110.336 110.336z m0-138.752c-15.6672 0-28.416 12.7488-28.416 28.416 0 15.6672 12.7488 28.416 28.416 28.416 15.6672 0 28.416-12.7488 28.416-28.416 0-15.6672-12.7488-28.416-28.416-28.416zM702.2592 621.3632c-60.8256 0-110.336-49.5104-110.336-110.336s49.5104-110.336 110.336-110.336 110.336 49.5104 110.336 110.336c0.0512 60.8256-49.4592 110.336-110.336 110.336z m0-138.752c-15.6672 0-28.416 12.7488-28.416 28.416 0 15.6672 12.7488 28.416 28.416 28.416 15.6672 0 28.416-12.7488 28.416-28.416 0.0512-15.6672-12.7488-28.416-28.416-28.416z" fill="#FFFFFF" p-id="20599"></path><path d="M890.9312 935.1168H503.9616c-22.6304 0-40.96-18.3296-40.96-40.96s18.3296-40.96 40.96-40.96H890.88c22.6304 0 40.96 18.3296 40.96 40.96s-18.2784 40.96-40.9088 40.96z" fill="#80B7F9" p-id="20600"></path><path d="M503.9616 853.1968c-22.6304 0-40.96 18.3296-40.96 40.96 0 20.6848 15.36 37.7344 35.2768 40.4992 5.7856 0.256 11.52 0.4608 17.3568 0.4608 94.0544 0 180.9408-30.464 251.5456-81.92H503.9616z" fill="#3E8BF8" p-id="20601"></path></svg>