<?xml version="1.0" standalone="no"?><!DOCTYPE svg PUBLIC "-//W3C//DTD SVG 1.1//EN" "http://www.w3.org/Graphics/SVG/1.1/DTD/svg11.dtd"><svg t="1723105590248" class="icon" viewBox="0 0 1234 1024" version="1.1" xmlns="http://www.w3.org/2000/svg" p-id="25879" xmlns:xlink="http://www.w3.org/1999/xlink" width="241.015625" height="200"><path d="M612.447272 76.496267s329.150541-1.821681 339.191304 24.987155c0 46.660858 72.666433 451.203183 119.35598 558.19468a23.438009 23.438009 0 0 1-10.844024 30.323103c-58.021264 29.00346-157.051871 2.58191-316.599588 36.318872-124.347673 26.292454-149.492611 46.044068-158.500609 27.03834-9.495693-20.081525-70.887784-44.093292-162.588635-108.024262-62.396167-43.476502-204.573366-81.516648-215.015758-116.630629-1.434395-4.977349 18.015997-5.737579 21.745423-6.512152C436.289265 482.96068 613.723884 119.585482 612.447272 76.496267z" fill="#E76963" p-id="25880"></path><path d="M741.714919 170.104862c59.799913 0.07172 248.150275 1.534802 304.79452 16.61029 9.180126 2.438471 27.382594 2.03684 26.450237 11.475157-12.479233 126.599672 41.597445 390.958607 83.567833 511.117848a37.667204 37.667204 0 0 1-19.651207 46.474387c-56.615557 26.665397-167.035258 31.11202-306.616201 60.976116-126.872207 27.181779-224.124165 97.122862-233.189539 78.102789-9.481349-20.009805 8.692432-64.40432-63.715811-155.904355-47.191584-59.64213-131.777837-99.432237-169.631512-127.747188-4.159744-3.112636 19.177857-8.950623 22.950315-9.66782 190.674081-36.060682 309.685806-332.693496 333.754948-415.42938a22.233117 22.233117 0 0 1 21.286417-16.007844z" fill="#217DC3" p-id="25881"></path><path d="M606.896165 60.129824a197.229265 56.084831 0 1 0 394.45853 0 197.229265 56.084831 0 1 0-394.45853 0Z" fill="#D11C1C" p-id="25882"></path><path d="M804.082398 116.903164c-52.742691 0-102.329715-5.85233-139.652663-16.452506-37.538108-10.671896-58.293799-25.015843-58.293799-40.320834S626.834251 30.49523 664.401047 19.80899c37.294261-10.600176 86.909972-16.452507 139.652663-16.452507s102.344059 5.85233 139.652664 16.452507c37.58114 10.68624 58.279455 25.001499 58.279455 40.320834s-20.640939 29.648938-58.222079 40.320834c-37.308605 10.600176-86.909972 16.452507-139.681352 16.452506z m0-112.169662c-108.368516 0-196.512068 24.843715-196.512067 55.396322s88.172239 55.468041 196.512067 55.468041 196.512068-24.843715 196.512068-55.396321-88.10052-55.468041-196.512068-55.468042z" p-id="25883"></path><path d="M876.461953 777.700094a3.428203 3.428203 0 0 1-0.659822-6.784687l18.647131-3.657706c103.563294-20.253653 192.969113-37.738923 203.684041-51.566488 15.190239-19.479079 13.755845-59.656474 3.715082-85.705081a3.428203 3.428203 0 0 1 6.3974-2.467158c10.944431 28.415358 12.178011 70.73-4.704815 92.389359-11.719004 15.089832-82.864979 29.691969-207.743377 54.076679l-18.647131 3.643362a2.58191 2.58191 0 0 1-0.688509 0.07172zM126.603459 892.595106a3.557299 3.557299 0 0 1-1.262267-0.229503c-46.933393-18.647131-82.750228-44.136324-103.563294-73.799605-24.183894-34.425472-28.257575-73.45535-12.063259-115.813025a3.428203 3.428203 0 1 1 6.3974 2.452815c-40.880248 106.977153 64.547759 162.086596 111.753687 180.733726a3.428203 3.428203 0 0 1-1.262267 6.61256z" fill="#1A1A1A" p-id="25884"></path><path d="M601.129899 759.095995a3.428203 3.428203 0 0 1-0.903669-6.727311c78.217541-21.429856 167.55164-33.435739 246.371626-44.05026 130.214347-17.513959 242.785639-32.646822 253.887854-81.602711-63.113365-152.347056-86.981692-299.96061-95.961003-397.040441-9.73954-105.456695-4.432279-175.785065-4.389247-176.430542a3.431072 3.431072 0 0 1 6.842062 0.530726c0 0.702853-5.321604 70.586561 4.389248 175.498186 8.964967 96.778607 32.861982 244.019219 95.860595 395.892924a3.399515 3.399515 0 0 1 0.186471 1.965121c-4.963006 25.317066-31.814873 43.777725-84.528877 58.107327-46.431355 12.622673-109.013994 21.04257-175.326059 29.964505-78.604827 10.571489-167.709423 22.548684-245.482301 43.849444a3.27042 3.27042 0 0 1-0.9467 0.043032zM131.709904 798.857415a3.67205 3.67205 0 0 1-1.01842-0.157783c-60.101136-18.819258-102.803065-45.585062-117.161356-73.426663-5.608483-10.872711-6.755999-21.51592-3.428203-31.800529 22.620404-69.410357 43.390438-105.686198 74.07214-129.411086 31.327179-24.212582 73.914357-35.859866 138.390396-53.373825l1.434395-0.401631c45.111712-12.292762 93.235653-44.136324 142.880052-94.670047 39.962235-40.607713 81.000266-93.235653 121.923545-156.506801a1764.807463 1764.807463 0 0 0 116.41547-211.358052 3.428203 3.428203 0 0 1 6.253961 2.79707 1770.702825 1770.702825 0 0 1-116.874476 212.290409c-41.138439 63.615403-82.477693 116.688005-122.755495 157.568252-50.576756 51.408704-99.704772 83.912087-145.992688 96.491729l-1.434394 0.40163c-129.468462 35.243077-164.266876 44.724425-207.815098 178.295256-2.739694 8.419897-1.735618 17.356175 2.997885 26.536301 13.325526 25.819104 55.625825 52.025494 113.130706 70.027147a3.428203 3.428203 0 0 1-1.032764 6.698623z" fill="#1A1A1A" p-id="25885"></path><path d="M804.082398 120.259648c-53.560296 0-103.964925-5.952738-141.933351-16.739386-27.769881-7.903515-60.890053-21.845831-60.890053-43.390438s33.120173-35.486924 60.890053-43.390438C700.117474 5.952738 750.522102 0 804.082398 0s103.979269 5.952738 142.005071 16.739386c27.784224 7.903515 60.890053 21.845831 60.890053 43.390438s-33.14886 35.486924-60.890053 43.390438c-37.997114 10.786648-88.401743 16.739386-142.005071 16.739386z m0-113.403242c-117.218731 0-195.966998 27.540377-195.966997 53.273418s78.776954 53.273417 195.966997 53.273417S1000.06374 85.862864 1000.06374 60.129824 921.344161 6.856406 804.082398 6.856406z" p-id="25886"></path><path d="M354.901712 558.252056a20.870442 20.870442 0 0 1-9.825603-2.295032 3.428203 3.428203 0 0 1 3.170012-6.067489c22.304837 11.661629 86.838252-44.136324 177.090364-153.150317 72.566026-87.498074 142.923083-186.629089 155.517069-209.206461 21.157321-37.939739 139.480536-72.867248 144.500917-74.344675a3.428203 3.428203 0 0 1 1.922089 6.583872c-1.204892 0.344255-120.63259 35.587331-140.441581 71.102943-12.694393 22.763843-83.410049 122.368208-156.219922 210.267912-42.042107 50.763227-78.303604 89.979577-107.780414 116.544566-30.122288 27.167435-52.513188 40.564681-67.932931 40.564681z" fill="#1A1A1A" p-id="25887"></path><path d="M602.133975 307.534214a3.413859 3.413859 0 0 1-3.313452-2.596254c-1.678242-6.799031-42.902744-70.830408-68.492344-109.587752a3.43681 3.43681 0 0 1 5.737578-3.786802c6.842063 10.370673 66.900167 101.540798 69.410357 111.739344a3.413859 3.413859 0 0 1-2.495846 4.1454 4.303184 4.303184 0 0 1-0.846293 0.086064zM557.925932 364.666153a3.428203 3.428203 0 0 1-2.954853-5.149477c0.114752-8.147362-30.954237-58.810181-61.478155-103.649358a3.428203 3.428203 0 1 1 5.665859-3.858521c0.172127 0.258191 17.212736 25.417473 33.349675 51.121825 9.467005 15.147208 16.739386 27.511689 21.616328 36.777879 8.606368 16.294723 8.807183 21.013882 6.296992 23.681856a3.399515 3.399515 0 0 1-2.495846 1.075796z m-2.495847-5.737579zM521.018957 403.825127a3.471235 3.471235 0 0 1-2.352407-0.932356 3.428203 3.428203 0 0 1-0.588102-4.303184c0-7.745731-29.835409-51.638208-59.010996-90.2808a3.428203 3.428203 0 1 1 5.465044-4.131057c0.172127 0.215159 16.68201 22.075334 32.173472 44.466235 9.137094 13.225119 16.13694 24.083486 20.82741 32.259536 8.362521 14.587794 8.520304 19.020073 5.981426 21.716735a3.399515 3.399515 0 0 1-2.495847 1.204891z m-2.495846-5.737578zM486.564798 451.418342a3.442547 3.442547 0 0 1-2.954853-5.163821c-0.07172-7.788763-30.237039-52.369749-59.78557-91.543067a3.431072 3.431072 0 0 1 5.479388-4.131056c0.157783 0.229503 16.868481 22.405245 32.560759 45.154743 9.251846 13.41159 16.337755 24.384709 21.085601 32.689854 8.477272 14.759921 8.606368 19.206544 6.110521 21.917551a3.456891 3.456891 0 0 1-2.495846 1.075796z m-2.495847-5.737579zM439.129366 501.665187a3.428203 3.428203 0 0 1-2.940509-5.192509c0-7.63098-28.888708-50.705851-57.275378-88.487806a3.428203 3.428203 0 0 1 5.479387-4.116713c0.157783 0.215159 16.237347 21.630671 31.298492 43.648629 8.878903 12.909552 15.692278 23.610136 20.224964 31.642746 8.075642 14.343947 8.17605 18.804914 5.737579 21.429857a3.485579 3.485579 0 0 1-2.524535 1.075796z m-2.495846-5.737579z" fill="#1A1A1A" p-id="25888"></path><path d="M630.850556 269.795291a3.499923 3.499923 0 0 1-1.133172-0.200816c-52.140246-18.345908-110.061102-35.773803-118.1224-33.607866a3.428203 3.428203 0 0 1-5.479387-4.016305c1.850369-3.356483 6.340024-4.374904 24.757651-0.14344 10.370673 2.381095 24.456429 6.32568 41.86998 11.719004 29.562874 9.165782 58.95362 19.493423 59.2405 19.593831a3.428203 3.428203 0 0 1-1.133172 6.655592z m-118.724846-34.52588zM587.775684 323.915001a3.12698 3.12698 0 0 1-1.190547-0.215159c-48.453851-18.130748-102.45881-35.386516-110.261917-33.320988a3.428203 3.428203 0 0 1-5.508076-4.001961c1.807337-3.299108 6.253961-4.389248 23.581448-0.172128 9.725196 2.366751 22.950314 6.268305 39.21635 11.632941 27.655129 9.094062 55.095099 19.349984 55.367634 19.450392a3.428203 3.428203 0 0 1-1.204892 6.626903z m-110.950426-34.239zM553.407589 371.120929a3.12698 3.12698 0 0 1-1.075796-0.172127c-49.630055-16.61029-104.825561-32.144784-112.528261-29.792377a3.456891 3.456891 0 0 1-4.188433 0.688509 3.413859 3.413859 0 0 1-1.348331-4.647439c1.778649-3.256076 6.239617-4.417936 23.796608-0.774573 9.926011 2.065528 23.366289 5.565451 39.976579 10.385018 28.185855 8.204737 56.185239 17.556991 56.457773 17.643054a3.428203 3.428203 0 0 1-1.090139 6.669935zM523.02711 407.812744a3.528611 3.528611 0 0 1-1.262268-0.243847c-46.990769-18.647131-99.475269-36.519688-107.235344-34.611943a3.428203 3.428203 0 0 1-5.493731-4.001961c1.821681-3.327796 6.196585-4.374904 23.165473 0 9.481349 2.481503 22.333525 6.54084 38.19793 12.091947 26.923588 9.409629 53.617672 19.995461 53.890207 20.081525a3.428203 3.428203 0 0 1-1.262267 6.61256z m-107.995574-35.558643zM477.284264 461.530824a3.256076 3.256076 0 0 1-0.903668-0.114751c-53.531609-14.43001-112.786452-27.511689-120.489151-24.743308a3.442547 3.442547 0 0 1-4.217121 0.717197 3.399515 3.399515 0 0 1-1.348331-4.647439c1.749961-3.184356 4.145401-7.55926 67.488269 6.999846 30.122288 6.913782 60.072448 14.97508 60.373671 15.061144a3.428203 3.428203 0 0 1-0.889325 6.727311zM391.277961 598.199947a3.456891 3.456891 0 0 1-2.395439-0.975389c-59.885977-58.810181-129.095519-95.129053-129.841405-95.487652a3.428203 3.428203 0 0 1 3.170013-6.081833c0.702853 0.358599 70.859096 37.193853 131.476614 96.6782a3.428203 3.428203 0 0 1-2.409783 5.866674z" fill="#1A1A1A" p-id="25889"></path><path d="M725.248068 161.0108a197.229265 56.084831 0 1 0 394.45853 0 197.229265 56.084831 0 1 0-394.45853 0Z" fill="#1026C4" p-id="25890"></path><path d="M922.462989 217.78414c-52.742691 0-102.329715-5.837986-139.652663-16.452506-37.566796-10.68624-58.265111-25.001499-58.265111-40.320834s20.727003-29.634594 58.265111-40.30649c37.294261-10.61452 86.909972-16.452507 139.652663-16.452507s102.344059 5.837986 139.667008 16.452507c37.566796 10.68624 58.265111 25.001499 58.265111 40.30649s-20.698315 29.634594-58.265111 40.320834c-37.322949 10.61452-86.909972 16.452507-139.667008 16.452506z m0-112.169662c-108.368516 0-196.512068 24.858059-196.512067 55.396322s88.172239 55.410666 196.512067 55.410665 196.512068-24.858059 196.512068-55.410665-88.129208-55.453697-196.512068-55.453697zM901.807706 897.242544a3.428203 3.428203 0 0 1-0.688509-6.784686c38.183586-7.932202 75.56391-15.233271 111.696311-22.304837 103.534606-20.267996 192.954769-37.767611 203.684041-51.566488 15.190239-19.479079 13.755845-59.656474 3.715083-85.705081a3.428203 3.428203 0 0 1 6.3974-2.467158c10.944431 28.401014 12.178011 70.73-4.704815 92.389359-11.762036 15.089832-82.965387 29.634594-207.800753 54.062335-36.118057 7.071566-73.469694 14.343947-111.624592 22.304837a3.901553 3.901553 0 0 1-0.674166 0.071719zM788.06021 922.717393a3.428203 3.428203 0 0 1-0.817605-6.755998c26.550645-6.512152 55.511073-13.110367 88.50215-20.167589a3.432506 3.432506 0 0 1 1.434395 6.712967c-32.991077 7.028534-61.82241 13.612405-88.301335 20.081525a3.184356 3.184356 0 0 1-0.817605 0.129095zM528.678625 1010.66013a3.428203 3.428203 0 0 1-0.817605-6.755999 329.681267 329.681267 0 0 0 61.879785-21.673703h0.14344l24.57118-10.298954c28.429702-13.511998 65.221925-26.593677 112.499573-40.005267a3.428203 3.428203 0 0 1 1.864713 6.598216c-46.933393 13.311182-83.410049 26.27811-111.495497 39.61798h-0.143439l-24.571181 10.313297a336.537674 336.537674 0 0 1-63.113364 22.089678 3.327796 3.327796 0 0 1-0.817605 0.114752zM413.927052 1024c-103.161664 0-223.579095-30.308759-273.6825-100.594097-25.015843-35.085293-29.103868-75.377439-12.134979-119.75761a3.428203 3.428203 0 1 1 6.397401 2.438471c-16.093908 42.113827-12.278418 80.326101 11.317373 113.317178 42.357674 59.412627 148.058216 97.739652 266.639623 97.739652q9.108406 0 18.274188-0.301223a3.429638 3.429638 0 0 1 0.215159 6.856406q-8.419897 0.315567-17.026265 0.301223z" fill="#1A1A1A" p-id="25891"></path><path d="M452.08195 927.221393a669.761896 669.761896 0 0 1-90.969309-6.368713c-90.20908-12.46489-173.145779-42.199891-211.31502-75.736037-19.26392-16.940201-26.651053-34.425472-21.343793-50.748883 44.279763-135.851518 82.449005-146.50907 208.919582-181.795179l5.006037-1.434394c197.645239-55.181162 377.733488-454.057628 381.190379-462.176302a3.083949 3.083949 0 0 1 0.415975-0.846293 3.428203 3.428203 0 0 1 6.253961 2.008153 8.606368 8.606368 0 0 1-0.61679 1.864713c-3.170012 7.889171-17.399207 37.480732-31.398899 64.547759-18.460659 35.716427-48.166973 90.166048-84.90182 146.738573-41.181471 63.443276-82.506381 116.386782-122.827214 157.367438-50.605443 51.423048-99.80518 84.069871-146.308255 97.036798l-5.006037 1.434395c-126.972615 35.429548-161.096864 44.953928-204.243455 177.319867-4.417936 13.698469 2.151592 28.329294 19.364328 43.533878 75.190968 66.11125 325.091205 115.827368 468.100351 47.865749 95.530684-45.398591 226.749107-63.113365 342.5191-78.619171 130.214347-17.513959 242.785639-32.661166 253.887854-81.602711-63.113365-152.3614-86.981692-299.96061-95.961003-397.054785-9.73954-105.442351-4.432279-175.785065-4.389247-176.430542a3.431072 3.431072 0 0 1 6.842062 0.530726c0 0.688509-5.321604 70.572217 4.389248 175.483842 8.964967 96.778607 32.861982 244.019219 95.860595 395.892924a3.456891 3.456891 0 0 1 0.186471 1.979465c-4.963006 25.317066-31.814873 43.777725-84.528877 58.107327-46.431355 12.622673-109.013994 21.04257-175.326059 29.950161C850.599817 831.575957 719.955152 849.161636 625.385512 894.086876c-34.85579 16.567258-77.156088 27.081371-125.739035 31.241116-15.333679 1.233579-31.212428 1.893401-47.564527 1.893401z" fill="#1A1A1A" p-id="25892"></path><path d="M922.462989 221.140624c-53.560296 0-103.964925-5.938394-141.919007-16.739386-27.784224-7.889171-60.890053-21.831487-60.890053-43.390438s33.105829-35.486924 60.890053-43.376094c37.954083-10.800992 88.358711-16.739386 141.919007-16.739386s103.979269 5.938394 142.005071 16.739386c27.784224 7.889171 60.890053 21.831487 60.890053 43.376094S1092.252284 196.512068 1064.46806 204.401238c-38.05449 10.800992-88.43043 16.739386-142.005071 16.739386z m0-113.403241c-117.218731 0-195.966998 27.554721-195.966998 53.273417s78.748267 53.273417 195.966998 53.273417 195.981342-27.540377 195.981342-53.273417-78.748267-53.273417-195.981342-53.273417z" fill="#1A1A1A" p-id="25893"></path><path d="M472.163475 659.907605a20.296684 20.296684 0 0 1-9.610444-2.208968 3.428203 3.428203 0 1 1 3.170012-6.067489c3.915897 2.051184 9.409629 1.893401 16.323411-0.473351 34.167281-11.661629 100.020339-76.123324 185.409853-181.493955 70.285338-86.723501 129.095519-170.692964 137.085098-188.077827 18.102061-39.331101 134.417123-66.426816 139.365784-67.559989a3.428203 3.428203 0 0 1 1.534803 6.68428c-1.190548 0.272535-117.97896 27.454314-134.675315 63.744498-8.17605 17.743462-67.416549 102.401434-137.988765 189.526566-60.904397 75.234-143.181274 168.182773-188.565522 183.659891a37.824987 37.824987 0 0 1-12.048915 2.266344z" fill="#1A1A1A" p-id="25894"></path><path d="M721.518642 410.0504a3.385171 3.385171 0 0 1-2.352407-0.932357 3.413859 3.413859 0 0 1-0.674166-4.116712c-0.344255-8.50596-35.47258-61.578563-69.71158-108.655395a3.428203 3.428203 0 1 1 5.536763-4.030649c0.186471 0.258191 19.393016 26.679741 37.538109 53.617672 10.671896 15.850061 18.919665 28.802645 24.485116 38.470464 9.825603 17.069296 10.270266 21.802799 7.674012 24.571181a3.442547 3.442547 0 0 1-2.495847 1.075796z m-2.495847-5.737579zM677.181503 467.110619a3.428203 3.428203 0 0 1-2.969197-5.149477c0.086064-8.204737-31.427587-59.627786-62.367479-105.212847a3.428203 3.428203 0 0 1 5.665859-3.844178c0.172127 0.258191 17.499615 25.819104 33.794338 51.896398 34.31072 54.908627 30.868173 58.566334 28.357982 61.234308a3.442547 3.442547 0 0 1-2.481503 1.075796z m-2.495846-5.737578zM639.37086 504.706103a3.413859 3.413859 0 0 1-2.868789-5.163821c0-7.731387-29.821065-51.638208-59.010996-90.280799a3.428203 3.428203 0 0 1 5.465043-4.131057c0.172127 0.229503 16.68201 22.089678 32.187816 44.466235 9.12275 13.225119 16.122596 24.069142 20.813067 32.245191 8.362521 14.602138 8.520304 19.020073 5.981426 21.716735a3.399515 3.399515 0 0 1-2.567567 1.147516z m-2.495847-5.737578zM605.232267 552.787012a3.385171 3.385171 0 0 1-2.352407-0.932357 3.428203 3.428203 0 0 1-0.602446-4.231464c-0.07172-7.774419-30.122288-52.240653-59.656473-91.313563a3.431072 3.431072 0 1 1 5.479387-4.131057c0.157783 0.229503 16.839793 22.347869 32.489039 45.039992 9.223158 13.382902 16.309067 24.384709 21.04257 32.618135 8.448585 14.731233 8.606368 19.177857 6.096177 21.874518a3.428203 3.428203 0 0 1-2.495847 1.075796z m-2.495846-5.737579zM557.481269 602.546163a3.428203 3.428203 0 0 1-2.940509-5.178165c0-7.645324-29.247307-50.734539-57.906512-88.516494a3.428203 3.428203 0 0 1 5.4507-4.145401c0.172127 0.215159 16.409475 21.645015 31.628402 43.662973 8.979311 12.909552 15.850061 23.62448 20.440124 31.65709 8.190393 14.343947 8.290801 18.819258 5.823642 21.51592a3.428203 3.428203 0 0 1-2.495847 1.004077z m-2.495846-5.737579z" fill="#1A1A1A" p-id="25895"></path><path d="M750.278255 368.438611a3.514267 3.514267 0 0 1-1.075796-0.172127c-52.69966-17.427895-111.265993-33.736962-119.226884-31.413243a3.428203 3.428203 0 0 1-5.508075-4.001961c1.778649-3.241732 4.303184-7.688355 67.100982 10.442393 29.835409 8.606368 59.484346 18.374596 59.785569 18.475003a3.428203 3.428203 0 0 1-1.075796 6.669935zM709.039409 425.728333a3.930241 3.930241 0 0 1-0.989733-0.143439c-51.953774-15.59187-110.735267-31.298491-117.347826-29.706313a3.399515 3.399515 0 0 1-4.303184-2.122904 3.442547 3.442547 0 0 1 2.151592-4.303184c9.811259-3.385171 95.473308 21.817143 121.507571 29.620249a3.428203 3.428203 0 0 1-0.989733 6.712967zM670.368129 471.542899a3.27042 3.27042 0 0 1-1.204892-0.229503c-47.736654-18.102061-100.981384-35.314796-108.727115-33.277956a3.428203 3.428203 0 0 1-5.508075-4.001961c1.807337-3.299108 6.210929-4.389248 23.351945-0.186472 9.5961 2.366751 22.620404 6.268305 38.728655 11.618597 27.253498 9.079718 54.33487 19.33564 54.607405 19.436048a3.428203 3.428203 0 0 1-1.219235 6.626903z m-109.429969-34.195969zM641.379013 508.69372a3.284764 3.284764 0 0 1-1.262268-0.243847c-46.990769-18.647131-99.460925-36.519688-107.235344-34.597599a3.428203 3.428203 0 0 1-5.493732-3.958929c1.821681-3.327796 6.196585-4.389248 23.165474 0 9.495693 2.467159 22.347869 6.54084 38.19793 12.077603 26.923588 9.423973 53.632016 20.009805 53.890207 20.081525a3.428203 3.428203 0 0 1-1.262267 6.612559z m-107.98123-35.544299zM596.453772 562.440488a3.34214 3.34214 0 0 1-0.975388-0.143439c-52.584908-15.778341-110.907395-30.351791-118.696158-27.784225a3.428203 3.428203 0 0 1-5.551107-3.958929c1.764305-3.213044 4.188432-7.616636 66.713695 8.606368 29.691969 7.674011 59.197467 16.524226 59.49869 16.61029a3.428203 3.428203 0 0 1-0.989732 6.698623zM608.80391 900.943283a3.428203 3.428203 0 0 1-3.413859-3.213044c-6.124865-98.815448-67.631708-173.705193-118.151088-219.132472-54.951659-49.414896-109.200465-75.664318-109.731191-75.922509a3.428203 3.428203 0 1 1 2.954853-6.182241c0.54507 0.258191 55.539761 26.866212 111.222962 76.897898 32.732886 29.419434 59.355251 61.090868 79.092521 94.124977 24.728964 41.39663 38.728656 85.059603 41.454005 129.784028a3.428203 3.428203 0 0 1-3.227388 3.629019z" fill="#1A1A1A" p-id="25896"></path></svg>