<?xml version="1.0" standalone="no"?><!DOCTYPE svg PUBLIC "-//W3C//DTD SVG 1.1//EN" "http://www.w3.org/Graphics/SVG/1.1/DTD/svg11.dtd"><svg t="1723109620666" class="icon" viewBox="0 0 1024 1024" version="1.1" xmlns="http://www.w3.org/2000/svg" p-id="16088" xmlns:xlink="http://www.w3.org/1999/xlink" width="200" height="200"><path d="M395.4856322 257.61955118h245.91329594c76.14801514 0 134.19440868-162.01873531 134.19440869-162.01873528 0-48.58717642-4.9799221-85.2910467-89.48050498-87.84687977-84.4742341-2.63487944-104.71010803 57.96734714-165.47042737 57.96734716-62.18315423 0-93.27473136-47.69131743-169.89702476-57.96734716-76.54324705-10.38142491-89.4014586 39.2597033-89.40145861 87.84687977 0 0 57.96734714 162.01873531 134.1153623 162.01873528z m259.37752975 50.08905771h-259.37752975C108.28377581 307.70860889 37.72170505 861.77105258 37.72170505 861.77105258 37.72170505 934.57277084 97.79695573 1007.61162827 171.83706735 1007.61162827h706.5692643C952.49914085 1007.61162827 1012.62708914 934.57277084 1012.62708914 861.77105258c0 0-70.61476835-554.06244371-357.76392719-554.06244369z m29.43160307 425.79651369c17.31115775 0 31.32871628 13.78041934 31.32871627 30.77539161a31.09157711 31.09157711 0 0 1-31.35506506 30.82808912h-127.1592806V875.86765745a31.09157711 31.09157711 0 0 1-31.32871629 30.82808917 31.09157711 31.09157711 0 0 1-31.32871626-30.82808917v-80.70635652h-128.00244206c-17.23211139 0-31.35506504-13.85946573-31.35506505-30.82808918a31.09157711 31.09157711 0 0 1 31.35506505-30.77539157h128.00244206v-39.04891295h-128.00244206a31.09157711 31.09157711 0 0 1-31.35506505-30.77539159c0-16.99497223 14.12295365-30.82808919 31.35506505-30.82808918h86.55578884l-88.63734356-154.56202656a30.56460122 30.56460122 0 0 1 11.48807425-42.05267547 31.69759938 31.69759938 0 0 1 42.84313932 11.19823753l106.63356995 185.4164645h5.42785161l106.63357-185.4164645a31.61855302 31.61855302 0 0 1 42.76409293-11.19823753c15.01881268 8.48431173 20.13047873 27.29735076 11.48807425 42.05267547l-88.55829719 154.56202656h81.2069836c17.31115775 0 31.32871628 13.83311695 31.32871627 30.82808918 0 17.02132103-14.0175585 30.7753916-31.35506506 30.77539159h-127.1592806v39.04891295h127.18562939z" fill="#FD7F29" p-id="16089"></path></svg>