<?xml version="1.0" standalone="no"?><!DOCTYPE svg PUBLIC "-//W3C//DTD SVG 1.1//EN" "http://www.w3.org/Graphics/SVG/1.1/DTD/svg11.dtd"><svg t="1723105925599" class="icon" viewBox="0 0 1024 1024" version="1.1" xmlns="http://www.w3.org/2000/svg" p-id="8470" xmlns:xlink="http://www.w3.org/1999/xlink" width="200" height="200"><path d="M512 512m-352 0a352 352 0 1 0 704 0 352 352 0 1 0-704 0Z" fill="#FFCB01" p-id="8471"></path><path d="M512 32c265.088 0 480 214.912 480 480 0 265.088-214.912 480-480 480-265.088 0-480-214.912-480-480C32 246.912 246.912 32 512 32z m0 64C282.24 96 96 282.24 96 512s186.24 416 416 416 416-186.24 416-416S741.76 96 512 96z m-32 512v-64h-128a32 32 0 0 1 0-64h128v-28.352a31.872 31.872 0 0 1-18.752-9.152l-135.744-135.744a32 32 0 1 1 45.248-45.248l135.744 135.744a32 32 0 0 1 5.504 7.36 32 32 0 0 1 5.504-7.36l135.744-135.744a32 32 0 1 1 45.248 45.248l-135.744 135.744a31.872 31.872 0 0 1-18.752 9.152V480h128a32 32 0 0 1 0 64h-128v64h128a32 32 0 0 1 0 64h-128v96a32 32 0 0 1-64 0v-96h-128a32 32 0 0 1 0-64h128z" fill="#1C412F" p-id="8472"></path></svg>