<?xml version="1.0" standalone="no"?><!DOCTYPE svg PUBLIC "-//W3C//DTD SVG 1.1//EN" "http://www.w3.org/Graphics/SVG/1.1/DTD/svg11.dtd"><svg t="1723102718035" class="icon" viewBox="0 0 1024 1024" version="1.1" xmlns="http://www.w3.org/2000/svg" p-id="6027" xmlns:xlink="http://www.w3.org/1999/xlink" width="200" height="200"><path d="M887.9 447.8L841.2 401h66c-1.9 17.7-8.9 33.7-19.3 46.8zM841.2 380.8l46.7-46.7c10.4 13.2 17.4 29.2 19.3 46.7h-66zM873.5 462.1c-13.1 10.5-29.2 17.4-46.7 19.4v-66.1l46.7 46.7zM873.5 319.9l-46.7 46.7v-66.1c17.6 2 33.6 8.9 46.7 19.4zM806.6 481.5c-17.5-2-33.5-8.9-46.7-19.4l46.7-46.7v66.1zM759.9 319.9c13.2-10.5 29.2-17.4 46.7-19.4v66.1l-46.7-46.7zM745.7 447.8c-10.5-13.2-17.5-29.2-19.4-46.8h66.1l-46.7 46.8zM745.7 334.2l46.7 46.7h-66.1c1.9-17.6 8.8-33.6 19.4-46.7z" fill="#FFFDC0" p-id="6028"></path><path d="M766.1 937.5H492.8V451.7h111.7l151.9 448.7c1.5 4.1 5.4 6.9 9.6 6.9v30.2z" fill="#FFD7B6" p-id="6029"></path><path d="M775.7 893.8L625.9 451.7h97.6c4.3 6.4 9 12.3 14.3 17.7 0.1 0.1 0.1 0.2 0.2 0.3 0.1 0.1 0.2 0.1 0.3 0.2 20.1 20 47.9 32.4 78.4 32.4v435.2h-50.6v-30.3c1.1 0 2.2-0.2 3.2-0.6 5.4-1.8 8.3-7.4 6.4-12.8z" fill="#FFD7B6" p-id="6030"></path><path d="M826.8 366.5l46.7-46.7c-13.1-10.5-29.2-17.4-46.7-19.4v66.1z m61.1-32.3l-46.7 46.7h66c-1.9-17.6-8.9-33.6-19.3-46.7z m19.3 66.9h-66l46.7 46.8c10.4-13.2 17.4-29.2 19.3-46.8z m-80.4 80.4c17.5-2 33.6-8.9 46.7-19.4l-46.7-46.7v66.1z m-66.9-19.4c13.2 10.5 29.2 17.4 46.7 19.4v-66.1l-46.7 46.7z m46.7-161.7c-17.5 2-33.5 8.9-46.7 19.4l46.7 46.7v-66.1z m-80.4 80.4h66.1l-46.7-46.7c-10.5 13.2-17.4 29.2-19.4 46.7z m0 20.3c1.9 17.6 8.9 33.6 19.4 46.8l46.7-46.8h-66.1z m11.6 68.3c-5.3-5.4-10-11.3-14.3-17.7h-97.6l149.8 442.1c1.8 5.4-1 11-6.4 12.9-1 0.4-2.1 0.6-3.2 0.6-4.3 0-8.1-2.7-9.6-6.9L604.6 451.7H492.8v485.8H816.7V502.3c-30.6 0-58.3-12.3-78.4-32.4-0.1-0.1-0.2-0.1-0.3-0.2-0.1-0.1-0.1-0.2-0.2-0.3zM546.3 279.6H411.8c-5.6 0-10.1-4.5-10.1-10.1s4.6-10.1 10.1-10.1h141.7c4.4 0 8.2 2.8 9.6 6.9l56 165.2h94c-5-12.6-7.8-26.1-7.8-40.5 0-30.6 12.4-58.2 32.4-78.3 0.1-0.1 0.1-0.2 0.2-0.3 0.1-0.1 0.2-0.1 0.3-0.2 20.1-20 47.9-32.5 78.4-32.5 30.6 0 58.3 12.4 78.4 32.5 0.1 0.1 0.2 0.1 0.3 0.2 0.1 0.1 0.1 0.2 0.2 0.3 20 20.1 32.4 47.8 32.4 78.3s-12.3 58.3-32.4 78.4c-0.1 0.1-0.1 0.2-0.2 0.3-0.1 0.1-0.2 0.1-0.3 0.2-15.6 15.5-35.7 26.3-58.2 30.5v447.3c0 5.7-4.6 10.1-10.1 10.1h-344c-5.6 0-10.1-4.5-10.1-10.1V441.5c0-5.6 4.6-10.1 10.1-10.1h115.1l-51.5-151.8z" fill="#4F5953" p-id="6031"></path><path d="M320.8 232.2c0 14.3 2.7 28.3 8.1 41.6l72.9 181.1v482.6H118.3V454.9l73-181.2c5.3-13.3 8-27.2 8-41.5v-94.3h121.5v94.3z" fill="#FFAFA9" p-id="6032"></path><path d="M330.9 117.6V87.3H189.2v30.4h141.7zM118.3 937.5h283.4V454.9l-72.9-181.1c-5.4-13.3-8.1-27.3-8.1-41.6v-94.3H199.3v94.3c0 14.3-2.7 28.2-8 41.5l-73 181.2v482.6z m54.2-671.3c4.4-10.9 6.6-22.4 6.6-34v-94.3c-5.6 0-10.1-4.5-10.1-10.1V77.2c0-5.6 4.6-10.1 10.1-10.1H341c5.6 0 10.1 4.6 10.1 10.1v50.6c0 5.7-4.6 10.1-10.1 10.1v94.3c0 11.7 2.2 23.2 6.6 34l73.7 183c0.5 1.1 0.7 2.4 0.7 3.7v494.7c0 5.7-4.6 10.1-10.1 10.1H108.2c-5.6 0-10.1-4.5-10.1-10.1V453c0-1.3 0.3-2.6 0.7-3.7l73.7-183.1z" fill="#4F5953" p-id="6033"></path></svg>