<?xml version="1.0" standalone="no"?><!DOCTYPE svg PUBLIC "-//W3C//DTD SVG 1.1//EN" "http://www.w3.org/Graphics/SVG/1.1/DTD/svg11.dtd"><svg t="1723102699333" class="icon" viewBox="0 0 1192 1024" version="1.1" xmlns="http://www.w3.org/2000/svg" p-id="4972" xmlns:xlink="http://www.w3.org/1999/xlink" width="232.8125" height="200"><path d="M1082.368 1024H452.096c-60.928 0-110.08-49.152-110.08-110.08v-198.656c0-60.928 49.152-110.08 110.08-110.08h630.784c60.928 0 110.08 49.152 110.08 110.08v198.656c-1.024 60.928-50.176 110.08-110.592 110.08z" fill="#DAEDFF" p-id="4973"></path><path d="M894.976 960.512c0 37.888-9.728 62.464-46.08 62.464s-44.032-24.576-44.032-62.464L803.84 599.04c-1.536 0-102.912-13.824-137.216-116.224 0 0 41.472-482.816 198.144-482.816 39.936 0 28.672 105.472 28.672 105.472l1.536 855.04zM431.104 473.6h-18.432l26.112 487.936c0 38.4-34.304 62.464-70.656 62.464-36.352 0-68.608-24.576-68.608-62.464l27.136-487.424-19.456-0.512c-14.848 0-86.528-132.096-86.528-155.136L254.464 2.048c0 0.512 47.104 2.048 47.104 2.048l-0.512 208.384c0 24.064-0.512 42.496 23.04 42.496 24.064 0 24.064-18.432 24.064-42.496V4.096h65.024V215.04c0 24.064 3.072 39.424 27.136 39.424s23.552-15.36 23.552-39.424V4.096h39.424l33.28 314.368c-1.024 23.552-90.624 155.136-105.472 155.136z" fill="#3399FF" p-id="4974"></path></svg>