<?xml version="1.0" standalone="no"?><!DOCTYPE svg PUBLIC "-//W3C//DTD SVG 1.1//EN" "http://www.w3.org/Graphics/SVG/1.1/DTD/svg11.dtd"><svg t="1723105369088" class="icon" viewBox="0 0 1024 1024" version="1.1" xmlns="http://www.w3.org/2000/svg" p-id="18606" xmlns:xlink="http://www.w3.org/1999/xlink" width="200" height="200"><path d="M0 0h1024v1024H0z" fill="#FFFFFF" p-id="18607"></path><path d="M512 530.286h329.143V640c0 121.187-98.242 219.429-219.429 219.429H512z" fill="#D23AFF" p-id="18608"></path><path d="M182.857 530.286H512v329.143H402.286c-121.187 0-219.429-98.243-219.429-219.429z" fill="#5D80FF" p-id="18609"></path><path d="M512 201.143h109.714c121.186 0 219.429 98.242 219.429 219.429v109.714H512z" fill="#FFB92C" p-id="18610"></path><path d="M402.286 201.143H512v329.143H182.857V420.572c0-121.187 98.242-219.429 219.429-219.429z" fill="#FC3D7D" p-id="18611"></path><path d="M332.816 675.105l47.508 27.428-32 55.426a27.429 27.429 0 0 1-47.508-27.429z" fill="#CBD5FF" p-id="18612"></path><path d="M347.43 704.651a73.2 73.2 0 0 1-13.684-116.514 73.151 73.151 0 0 0 121.43 70.108A73.2 73.2 0 0 1 347.43 704.65z m31.343-54.288a73.765 73.765 0 0 1-36.335-69.265 73.172 73.172 0 0 1 114.486 66.064 73.668 73.668 0 0 1-78.15 3.201z" fill="#ECF0FF" p-id="18613"></path><path d="M607.995 786.291a13.717 13.717 0 0 1 0-27.434h18.284v-82.286h27.434v82.286h18.284a13.717 13.717 0 1 1 0 27.434z" fill="#F1C2FF" p-id="18614"></path><path d="M566.857 639.993v-56.876c0-8.986 32.75-16.26 73.136-16.26 40.4 0 73.152 7.274 73.152 16.26v56.876a73.144 73.144 0 1 1-146.288 0z" fill="#F9E8FF" p-id="18615"></path><path d="M374.857 292.572A100.571 100.571 0 1 1 274.286 393.143 100.571 100.571 0 0 1 374.857 292.572z" fill="#FFA1C0" p-id="18616"></path><path d="M374.857 393.143m-54.857 0a54.857 54.857 0 1 0 109.714 0 54.857 54.857 0 1 0-109.714 0Z" fill="#FFECF3" p-id="18617"></path><path d="M374.857 429.717q-12.962 0-20.2-4.815t-7.229-15.059a18.253 18.253 0 0 1 1.273-7.117 16.525 16.525 0 0 1 3.3-5.122 16.808 16.808 0 0 1 4.57-3.378 35.641 35.641 0 0 1 5.092-2.1v-0.41a21.343 21.343 0 0 1-8.333-5.79q-3.24-3.742-3.24-10.4a19.841 19.841 0 0 1 1.447-7.683 15.427 15.427 0 0 1 4.455-5.993 21.249 21.249 0 0 1 7.7-3.893 39.749 39.749 0 0 1 11.165-1.383 39.749 39.749 0 0 1 11.168 1.383 21.249 21.249 0 0 1 7.7 3.893 15.428 15.428 0 0 1 4.453 5.993 19.841 19.841 0 0 1 1.445 7.683q0 6.454-2.835 10.3a17.658 17.658 0 0 1-8.738 5.89v0.41a32.5 32.5 0 0 1 5.5 2.1 15.069 15.069 0 0 1 7.636 8.6 20.824 20.824 0 0 1 1.1 7.12q0 10.244-7.175 15.008t-20.254 4.763z m0-40.976a23.312 23.312 0 0 0 7.233-0.973 12.152 12.152 0 0 0 4.745-2.715 10.438 10.438 0 0 0 2.6-4 14.437 14.437 0 0 0 0.81-4.917q0-5.839-3.819-9.015t-11.569-3.171q-15.392 0-15.392 12.19a16.631 16.631 0 0 0 0.694 4.917 9.348 9.348 0 0 0 2.488 4 12.152 12.152 0 0 0 4.745 2.715 24.211 24.211 0 0 0 7.465 0.968z m0 33.5q9.49 0 13.656-3.432a11.383 11.383 0 0 0 4.165-9.273q0-7.273-4.4-10.654t-13.421-3.38q-9.027 0-13.367 3.381t-4.34 10.653a11.451 11.451 0 0 0 4.108 9.271q4.109 3.432 13.599 3.432z" fill="#FFA1C0" p-id="18618"></path><path d="M593.496 293.369l127.513 11.156a9.143 9.143 0 0 1 8.311 9.905L713.383 496.59a9.143 9.143 0 0 1-9.905 8.311l-127.513-11.156a9.143 9.143 0 0 1-8.31-9.905l15.936-182.16a9.143 9.143 0 0 1 9.905-8.312z" fill="#FFE7B7" p-id="18619"></path><path d="M566.857 292.572h128a9.143 9.143 0 0 1 9.143 9.143v182.857a9.143 9.143 0 0 1-9.143 9.143h-128a9.143 9.143 0 0 1-9.143-9.143V301.715a9.143 9.143 0 0 1 9.143-9.143z" fill="#FFFAF1" p-id="18620"></path><path d="M613.7 426.564l15.387-30.188-7.326 7.193a21.745 21.745 0 0 1-30.336 0 20.752 20.752 0 0 1 0-29.752l9.1-8.93 30.332-29.752 39.431 38.682a20.752 20.752 0 0 1 0 29.752 21.731 21.731 0 0 1-30.328 0l-7.335-7.2 15.388 30.195z" fill="#FFB92C" p-id="18621"></path></svg>