<?xml version="1.0" standalone="no"?><!DOCTYPE svg PUBLIC "-//W3C//DTD SVG 1.1//EN" "http://www.w3.org/Graphics/SVG/1.1/DTD/svg11.dtd"><svg t="1723105813372" class="icon" viewBox="0 0 1024 1024" version="1.1" xmlns="http://www.w3.org/2000/svg" p-id="7432" xmlns:xlink="http://www.w3.org/1999/xlink" width="200" height="200"><path d="M632.531975 308.925899 428.484547 308.925899c-3.291249 0-9.873748 3.281215-9.873748 6.592533l-46.077491 207.318609c-3.291249 3.291249 0 6.592533 0 6.592533 3.301284 3.271181 6.582499 3.271181 9.873748 3.271181l296.202411 0c3.291249 0 6.56243 0 9.85368-3.271181 3.311318-3.301284 3.311318-3.301284 0-6.592533l-46.077491-207.318609C642.385654 312.227183 639.094405 308.925899 632.531975 308.925899z" fill="#7181BF" p-id="7433"></path><path d="M512 4.836531c-280.097364 0-507.163469 227.066105-507.163469 507.163469 0 280.107398 227.066105 507.173503 507.163469 507.173503s507.163469-227.066105 507.163469-507.173503C1019.163469 231.902636 792.097364 4.836531 512 4.836531zM513.153944 254.600216l3.481901-31.156492c0-3.471867 3.461832-3.471867 3.461832-3.471867l27.694659 0c3.491935 0 3.491935 3.471867 3.491935 3.471867l6.913631 31.156492c0 0 0 3.471867-3.471867 3.471867L513.153944 258.072082C513.153944 258.062048 509.692112 258.062048 513.153944 254.600216zM533.924939 774.055698c-58.861186 0-107.336874-6.913631-107.336874-17.329231 0-10.385497 41.562058-17.319196 93.489544-17.319196L520.077609 587.016404l27.704694 0 0 152.400902c51.957589 0 93.499579 10.395532 93.499579 17.319196C641.291916 767.142068 592.806193 774.055698 533.924939 774.055698zM720.93413 552.408114c-6.913631 6.933699-17.329231 13.857364-31.156492 13.857364L378.102342 566.265478c-10.395532 0-24.242861-3.471867-31.166526-13.857364s-6.923665-20.770995-6.923665-31.156492l48.485723-218.165683c3.471867-17.309162 17.329231-31.156492 38.100225-31.156492L641.291916 271.929446c17.329231 0 34.628359 13.857364 38.100225 31.156492l48.465654 218.165683C727.857795 531.637119 727.857795 542.022616 720.93413 552.408114z" fill="#7181BF" p-id="7434"></path></svg>