<?xml version="1.0" standalone="no"?><!DOCTYPE svg PUBLIC "-//W3C//DTD SVG 1.1//EN" "http://www.w3.org/Graphics/SVG/1.1/DTD/svg11.dtd"><svg t="1723109514227" class="icon" viewBox="0 0 1024 1024" version="1.1" xmlns="http://www.w3.org/2000/svg" p-id="11933" xmlns:xlink="http://www.w3.org/1999/xlink" width="200" height="200"><path d="M669.4 818.6H541.3l8.6-92.9 16.9-157c0-26.1-24.3-47.4-54-47.4h-86.4c-29.7 0-54 21.3-54 47.4l-19.2 157-13.3 108.6c0 11.2 4.6 21.3 12 29.4 7.7 10.7 21.1 18 36.6 18h280.9c23.8 0 36.8-10.7 36.8-31.5 0-20.9-13.1-31.6-36.8-31.6z" fill="#F4F4F4" p-id="11934"></path><path d="M751.5 747.3h-502c-44 0-80-36-80-80v-320c0-44 36-80 80-80h502c44 0 80 36 80 80v320c0 44-36 80-80 80z" fill="#FFECB6" p-id="11935"></path><path d="M735.1 737.7H201.7c-40.8 0-73.9-33-73.9-73.6v-3.2c0-5.3 4.3-9.6 9.6-9.6s9.6 4.3 9.6 9.6v3.2c0 30 24.5 54.4 54.6 54.4H735c30.1 0 54.6-24.4 54.6-54.4v-352c0-30-24.5-54.4-54.6-54.4H201.7c-30.1 0-54.6 24.4-54.6 54.4v217.6c0 5.3-4.3 9.6-9.6 9.6s-9.6-4.3-9.6-9.6V312.1c0-40.6 33.2-73.6 73.9-73.6h533.4c40.8 0 73.9 33 73.9 73.6v352c-0.1 40.6-33.3 73.6-74 73.6z" fill="" p-id="11936"></path><path d="M137.4 600.1c-5.3 0-9.6-4.3-9.6-9.6v-16c0-5.3 4.3-9.6 9.6-9.6s9.6 4.3 9.6 9.6v16c0 5.3-4.3 9.6-9.6 9.6z" fill="" p-id="11937"></path><path d="M637.2 831.4H509.1l8.6-92.9 16.9-157c0-26.1-24.3-47.4-54-47.4h-86.4c-29.7 0-54 21.3-54 47.4l-19.2 157-13.3 108.6c0 11.2 4.6 21.3 12 29.4 7.7 10.7 21.1 18 36.6 18h280.9c23.8 0 36.8-10.7 36.8-31.5 0-20.9-13-31.6-36.8-31.6z" fill="#F4BA64" p-id="11938"></path><path d="M555.2 302.5a151 150.4 0 1 0 302 0 151 150.4 0 1 0-302 0Z" fill="#FFDB69" p-id="11939"></path><path d="M735.1 446.5c-88.6 0-160.7-71.8-160.7-160s72.1-160 160.7-160c44.5 0 66.4 14.2 78.1 21.8l2.5 1.6c4.5 2.8 5.8 8.8 3 13.2-2.8 4.5-8.8 5.8-13.3 3l-2.7-1.7c-10.8-7-28.8-18.7-67.6-18.7-78 0-141.4 63.2-141.4 140.8s63.4 140.8 141.4 140.8 141.4-63.2 141.4-140.8c0-44.6-13.8-68.2-34.4-89.8-3.7-3.8-3.5-9.9 0.3-13.6 3.9-3.7 9.9-3.5 13.6 0.3 20.6 21.6 39.7 49.1 39.7 103.1 0 88.2-72 160-160.6 160z" fill="" p-id="11940"></path><path d="M741.5 302.5h-77.1c-5.3 0-9.6-4.3-9.6-9.6s4.3-9.6 9.6-9.6h67.5v-86.4c0-5.3 4.3-9.6 9.6-9.6s9.6 4.3 9.6 9.6v96c0 5.3-4.3 9.6-9.6 9.6z" fill="" p-id="11941"></path><path d="M494.1 403.8c0 21.1-10.9 46-27.3 56.4-8.9 5.6-19.4-4.2-30.6-4.2-11.1 0-21.4 9.9-30.2 4.4-16.6-10.4-27.6-35.4-27.6-56.6 0-14 2.1-29.7 12.8-37 19.3-13.1 26.8-2.3 45-2.3 18.1 0 25.7-10.8 44.8 2 10.8 7.3 13.1 23.1 13.1 37.3zM436.2 347.3s0-25.6 32.1-25.6c0.1 0-6.4 25.6-32.1 25.6z" fill="#F7931E" p-id="11942"></path></svg>