<?xml version="1.0" standalone="no"?><!DOCTYPE svg PUBLIC "-//W3C//DTD SVG 1.1//EN" "http://www.w3.org/Graphics/SVG/1.1/DTD/svg11.dtd"><svg t="1723109488945" class="icon" viewBox="0 0 1024 1024" version="1.1" xmlns="http://www.w3.org/2000/svg" p-id="10684" xmlns:xlink="http://www.w3.org/1999/xlink" width="200" height="200"><path d="M890.88 802.133333a81.237333 81.237333 0 0 1-5.290667 29.696 75.776 75.776 0 0 1-15.189333 24.746667 72.362667 72.362667 0 0 1-23.381333 17.066667 71.338667 71.338667 0 0 1-29.184 5.802666H211.456a77.824 77.824 0 0 1-30.037333-5.802666 79.018667 79.018667 0 0 1-24.917334-17.066667 77.824 77.824 0 0 1-17.066666-24.064A72.362667 72.362667 0 0 1 133.12 802.133333V386.218667a75.434667 75.434667 0 0 1 75.946667-75.946667h605.866666a75.434667 75.434667 0 0 1 75.946667 75.946667v113.664H701.44a73.557333 73.557333 0 0 0-52.906667 21.674666 71.338667 71.338667 0 0 0-22.186666 53.418667 92.16 92.16 0 0 0 9.216 38.4 69.12 69.12 0 0 0 22.186666 25.770667 72.192 72.192 0 0 0 44.544 11.776H890.88V802.133333z m-113.493333-530.261333h-378.88q45.056-23.381333 85.333333-45.056 35.157333-18.090667 69.290667-36.693333c22.698667-12.288 40.618667-21.674667 53.418666-28.330667a99.84 99.84 0 0 1 51.2-14.677333 117.76 117.76 0 0 1 38.912 8.021333 107.690667 107.690667 0 0 1 31.744 24.234667zM663.893333 574.976a37.034667 37.034667 0 0 1 37.546667-37.546667 36.693333 36.693333 0 0 1 37.546667 37.546667 37.888 37.888 0 0 1-10.752 27.136 36.010667 36.010667 0 0 1-26.794667 11.264 35.328 35.328 0 0 1-26.624-11.264 37.376 37.376 0 0 1-10.922667-27.136z" fill="#FFBE61" p-id="10685"></path></svg>