<?xml version="1.0" standalone="no"?><!DOCTYPE svg PUBLIC "-//W3C//DTD SVG 1.1//EN" "http://www.w3.org/Graphics/SVG/1.1/DTD/svg11.dtd"><svg t="1723102824882" class="icon" viewBox="0 0 1024 1024" version="1.1" xmlns="http://www.w3.org/2000/svg" p-id="11039" xmlns:xlink="http://www.w3.org/1999/xlink" width="200" height="200"><path d="M915.968 373.4016a56.7296 56.7296 0 0 0-40.96 17.152q-33.792-90.8288-67.84-181.6576c-14.2848-37.8368-40.96-56.32-81.5104-56.32H293.376q-60.2624 0-81.4592 56.6272-34.0992 90.5216-68.0448 181.2992A57.088 57.088 0 0 0 46.08 430.4896v43.9296a57.088 57.088 0 0 0 57.088 57.088 55.7056 55.7056 0 0 0 11.776-1.2288v312.832c0 21.3504 12.9536 34.2016 34.2016 34.3552h57.0368c21.9136 0 34.5088-12.9536 34.6624-35.0208v-43.008h536.576a11.3664 11.3664 0 0 1 0.7168 2.6112v41.472c0.3072 20.736 13.056 33.6896 33.6384 33.8944h54.9376c25.6 0 37.376-12.032 37.376-37.5296v-309.7088a55.7056 55.7056 0 0 0 11.776 1.2288 57.1392 57.1392 0 0 0 57.1392-57.088v-43.8272a57.1392 57.1392 0 0 0-57.0368-57.088zM288.3584 688.9472a63.4368 63.4368 0 1 1 0.6656-126.8224 63.4368 63.4368 0 0 1-0.6656 126.8224z m442.4704 0a63.4368 63.4368 0 0 1-0.256-126.8224 63.4368 63.4368 0 1 1 0.256 126.8224zM198.912 467.3536l30.2592-80.5376C247.5008 337.92 266.24 289.4336 283.9552 240.64a13.056 13.056 0 0 1 14.7968-10.24q210.944 0.3584 421.888 0c6.8096 0 11.1616 0.8192 13.9264 8.3968 26.9824 73.1136 54.3744 146.0736 81.6128 219.0336 1.0752 2.8672 1.8432 5.7856 2.9696 9.4208z" fill="#FC7032" p-id="11040"></path><path d="M875.2128 390.5536q-33.9968-90.8288-68.0448-181.6576c-14.2848-37.8368-40.96-56.32-81.5104-56.32H293.376q-60.2624 0-81.4592 56.6272-34.0992 90.5216-68.0448 181.2992A57.088 57.088 0 0 0 46.08 430.4896v43.9296a57.088 57.088 0 0 0 57.088 57.088 55.7056 55.7056 0 0 0 11.776-1.2288v312.832c0 21.3504 12.9536 34.2016 34.2016 34.3552h57.0368c21.9136 0 34.5088-12.9536 34.6624-35.0208v-43.008h405.8624a626.8416 626.8416 0 0 0 258.816-424.96 57.0368 57.0368 0 0 0-30.3104 16.0768zM288.3584 688.9472a63.4368 63.4368 0 1 1 0.6656-126.8224 63.4368 63.4368 0 0 1-0.6656 126.8224z m442.4704 0a63.4368 63.4368 0 0 1-0.256-126.8224 63.4368 63.4368 0 1 1 0.256 126.8224zM198.912 467.3536l30.2592-80.5376C247.5008 337.92 266.24 289.4336 283.9552 240.64a13.056 13.056 0 0 1 14.7968-10.24q210.944 0.3584 421.888 0c6.8096 0 11.1616 0.8192 13.9264 8.3968 26.9824 73.1136 54.3744 146.0736 81.6128 219.0336 1.0752 2.8672 1.8432 5.7856 2.9696 9.4208z" fill="#FF7E3E" p-id="11041"></path><path d="M229.1712 386.816C247.5008 337.92 266.24 289.4336 283.9552 240.64a13.056 13.056 0 0 1 14.7968-10.24q209.5104 0.3584 419.072 0a630.2208 630.2208 0 0 0 16.0256-77.8752H293.376q-60.2624 0-81.4592 56.6272-34.0992 90.5728-68.0448 181.3504A57.088 57.088 0 0 0 46.08 430.4896v43.9296a57.088 57.088 0 0 0 57.088 57.088 55.7056 55.7056 0 0 0 11.776-1.2288v161.5872a628.0704 628.0704 0 0 0 136.5504-15.36 62.8736 62.8736 0 0 1 37.5808-114.3808A63.4368 63.4368 0 0 1 348.16 646.2976a627.8656 627.8656 0 0 0 245.76-178.944H198.912z" fill="#FF9552" p-id="11042"></path><path d="M219.8528 411.648q4.608-12.4416 9.3184-24.832C247.5008 337.92 266.24 289.4336 283.9552 240.64a13.056 13.056 0 0 1 14.7968-10.24h149.504a626.2272 626.2272 0 0 0 52.5312-78.0288H293.376q-60.2624 0-81.4592 56.6272-34.0992 90.7264-68.0448 181.504A57.088 57.088 0 0 0 46.08 430.4896v32.9728A622.6944 622.6944 0 0 0 219.8528 411.648z" fill="#FFA56A" p-id="11043"></path></svg>