<?xml version="1.0" standalone="no"?><!DOCTYPE svg PUBLIC "-//W3C//DTD SVG 1.1//EN" "http://www.w3.org/Graphics/SVG/1.1/DTD/svg11.dtd"><svg t="1723092853247" class="icon" viewBox="0 0 1024 1024" version="1.1" xmlns="http://www.w3.org/2000/svg" p-id="2739" xmlns:xlink="http://www.w3.org/1999/xlink" width="200" height="200"><path d="M890 281.4H308.5c-4.6 0-8.3 3.7-8.3 8.3 0 4.6-3.7 8.3-8.3 8.3-4.6 0-8.3-3.7-8.3-8.3 0-4.6-3.7-8.3-8.3-8.3H134c-9.2 0-16.6 7.4-16.6 16.6v432c0 9.2 7.4 16.6 16.6 16.6h141.2c4.6 0 8.3-3.7 8.3-8.3 0-4.6 3.7-8.3 8.3-8.3 4.6 0 8.3 3.7 8.3 8.3 0 4.6 3.7 8.3 8.3 8.3H890c9.2 0 16.6-7.4 16.6-16.6V298c0-9.2-7.4-16.6-16.6-16.6z m-589.8 407c0 4.6-3.7 8.3-8.3 8.3-4.6 0-8.3-3.7-8.3-8.3v-16.6c0-4.6 3.7-8.3 8.3-8.3 4.6 0 8.3 3.7 8.3 8.3v16.6z m0-66.4c0 4.6-3.7 8.3-8.3 8.3-4.6 0-8.3-3.7-8.3-8.3v-16.6c0-4.6 3.7-8.3 8.3-8.3 4.6 0 8.3 3.7 8.3 8.3V622z m0-66.5c0 4.6-3.7 8.3-8.3 8.3-4.6 0-8.3-3.7-8.3-8.3v-16.6c0-4.6 3.7-8.3 8.3-8.3 4.6 0 8.3 3.7 8.3 8.3v16.6z m0-66.4c0 4.6-3.7 8.3-8.3 8.3-4.6 0-8.3-3.7-8.3-8.3v-16.6c0-4.6 3.7-8.3 8.3-8.3 4.6 0 8.3 3.7 8.3 8.3v16.6z m0-66.5c0 4.6-3.7 8.3-8.3 8.3-4.6 0-8.3-3.7-8.3-8.3V406c0-4.6 3.7-8.3 8.3-8.3 4.6 0 8.3 3.7 8.3 8.3v16.6z m0-66.4c0 4.6-3.7 8.3-8.3 8.3-4.6 0-8.3-3.7-8.3-8.3v-16.6c0-4.6 3.7-8.3 8.3-8.3 4.6 0 8.3 3.7 8.3 8.3v16.6zM785.3 531l-317 82.7-76.8-55 10.5-17.8 54.7 30.8 119.1-36.3L462.1 451l22.5-36.7 175.7 95.3L769 476.5c15.8-4.8 32.6 4.2 36.9 19.7 4.2 15.2-5.1 30.7-20.6 34.8z" fill="#FFCF48" p-id="2740"></path></svg>